<svg width="64" height="64" viewBox="0 0 64 64" fill="none" xmlns="http://www.w3.org/2000/svg">
<rect x="24" width="8" height="8" fill="white"/>
<rect x="32" width="8" height="8" fill="white"/>
<rect x="24" y="56" width="8" height="8" fill="white"/>
<rect x="32" y="56" width="8" height="8" fill="white"/>
<rect width="8" height="8" transform="matrix(0 -1 -1 0 8 40)" fill="white"/>
<rect width="8" height="8" transform="matrix(0 -1 -1 0 8 32)" fill="white"/>
<rect width="8" height="8" transform="matrix(0 -1 -1 0 32 40)" fill="white"/>
<rect width="8" height="8" transform="matrix(0 -1 -1 0 32 32)" fill="white"/>
<rect width="8" height="8" transform="matrix(0 -1 -1 0 40 40)" fill="white"/>
<rect width="8" height="8" transform="matrix(0 -1 -1 0 40 32)" fill="white"/>
<rect width="8" height="8" transform="matrix(0 -1 -1 0 64 40)" fill="white"/>
<rect width="8" height="8" transform="matrix(0 -1 -1 0 64 32)" fill="white"/>
<rect width="8" height="8" transform="matrix(0 -1 -1 0 56 24)" fill="white"/>
<rect width="8" height="8" transform="matrix(0 -1 -1 0 48 16)" fill="white"/>
<rect width="8" height="8" transform="matrix(0 -1 -1 0 24 56)" fill="white"/>
<rect width="8" height="8" transform="matrix(0 -1 -1 0 16 48)" fill="white"/>
<rect width="8" height="8" transform="matrix(0 -1 -1 0 16 24)" fill="white"/>
<rect width="8" height="8" transform="matrix(0 -1 -1 0 24 16)" fill="white"/>
<rect width="8" height="8" transform="matrix(0 -1 -1 0 48 56)" fill="white"/>
<rect width="8" height="8" transform="matrix(0 -1 -1 0 56 48)" fill="white"/>
</svg>
