<svg width="600" height="840" viewBox="0 0 600 840" fill="none" xmlns="http://www.w3.org/2000/svg">
<rect y="3.05176e-05" width="600" height="840" fill="white"/>
<path d="M574.414 23.5867V750.962H25.5864V23.5867H574.414Z" fill="#ED1C24"/>
<path d="M574.413 196.295V750.962H546.908L93.1768 297.231L109.508 280.856V223.203L128.271 223.287L94.1562 189.216L109.508 173.736V123.971L95.9919 110.454L122.088 84.3543L139.615 101.881L157.056 84.3936L174.667 102.052H181.789V92.7569H231.643L237.139 87.2559L259.401 109.557L284.605 84.3117L303.625 103.331L322.601 84.3543L359.915 121.668V98.4695H391.384L402.384 87.51L430.874 115.994L462.473 84.3543L574.413 196.295" fill="#2C3892"/>
<path d="M157.649 189.102H129.824V146.436L122.031 139.882V189.102H94.2062V84.3545H122.031V103.398L134.398 84.3545H157.029L135.141 117.994L157.649 136.667V189.102" fill="white"/>
<path d="M212.188 170.181V103.275H202.168V170.181H212.188ZM240.131 179.701C240.131 182.096 239.142 184.257 237.167 186.193C235.188 188.136 233.003 189.102 230.61 189.102H183.865C181.473 189.102 179.308 188.136 177.372 186.193C175.433 184.257 174.467 182.096 174.467 179.701V93.7532C174.467 91.3635 175.433 89.1988 177.372 87.2593C179.308 85.3233 181.473 84.3545 183.865 84.3545H230.61C233.003 84.3545 235.188 85.3233 237.167 87.2593C239.142 89.1988 240.131 91.3635 240.131 93.7532V179.701" fill="white"/>
<path d="M322.618 179.701C322.618 182.096 321.629 184.257 319.65 186.193C317.67 188.136 315.485 189.102 313.093 189.102H266.347C263.956 189.102 261.794 188.136 259.855 186.193C257.916 184.257 256.95 182.096 256.95 179.701V84.3545H284.652V170.181H294.669V84.3545H322.618V179.701Z" fill="white"/>
<path d="M377.155 170.181V103.275H367.137V170.181H377.155ZM405.097 179.701C405.097 182.096 404.111 184.257 402.132 186.193C400.157 188.136 397.969 189.102 395.579 189.102H339.432V84.3545H395.579C397.969 84.3545 400.157 85.3233 402.132 87.2593C404.111 89.1988 405.097 91.3635 405.097 93.7532V179.701Z" fill="white"/>
<path d="M467.058 170.181L462.48 189.102H421.916V84.3545H462.48L467.058 103.275H449.866V124.3H466.437V143.22H449.866V170.181H467.058Z" fill="white"/>
<path d="M122.255 284.319V228.948H113.966V284.319H122.255ZM145.386 292.194C145.386 294.18 144.567 295.969 142.931 297.567C141.292 299.176 139.486 299.976 137.507 299.976H98.8175C96.8419 299.976 95.0496 299.176 93.4471 297.567C91.8447 295.969 91.0416 294.18 91.0416 292.194V221.064C91.0416 219.089 91.8447 217.298 93.4471 215.694C95.0496 214.093 96.8419 213.289 98.8175 213.289H137.507C139.486 213.289 141.292 214.093 142.931 215.694C144.567 217.298 145.386 219.089 145.386 221.064V292.194Z" fill="white"/>
<path d="M190.518 284.319V228.948H182.23V284.319H190.518ZM213.646 292.194C213.646 294.18 212.829 295.969 211.192 297.567C209.556 299.176 207.746 299.976 205.767 299.976H167.081C165.102 299.976 163.31 299.176 161.707 297.567C160.105 295.969 159.302 294.18 159.302 292.194V221.064C159.302 219.089 160.105 217.298 161.707 215.694C163.31 214.093 165.102 213.289 167.081 213.289H205.767C207.746 213.289 209.556 214.093 211.192 215.694C212.829 217.298 213.646 219.089 213.646 221.064V292.194Z" fill="white"/>
<path d="M259.292 250.642V228.948H250.49V250.642H259.292ZM286.207 299.976H262.361L251.002 266.405H250.49V299.976H227.565V213.289H272.491C274.47 213.289 276.263 214.093 277.864 215.694C279.468 217.298 280.271 219.089 280.271 221.064V258.625C280.271 260.197 279.724 261.683 278.635 263.075C277.542 264.475 276.246 265.451 274.746 265.997L286.207 299.976" fill="white"/>
<path d="M337.177 284.319L333.493 299.976H300.126V213.289H323.154V284.319H337.177" fill="white"/>
<path d="M382.31 284.319V228.948H374.021V284.319H382.31ZM405.44 292.194C405.44 294.18 404.621 295.969 402.985 297.567C401.343 299.176 399.534 299.976 397.561 299.976H358.876C356.891 299.976 355.101 299.176 353.501 297.567C351.893 295.969 351.093 294.18 351.093 292.194V221.064C351.093 219.089 351.893 217.298 353.501 215.694C355.101 214.093 356.891 213.289 358.876 213.289H397.561C399.534 213.289 401.343 214.093 402.985 215.694C404.621 217.298 405.44 219.089 405.44 221.064V292.194Z" fill="white"/>
<path d="M470.223 292.194C470.223 294.18 469.39 295.969 467.717 297.567C466.042 299.176 464.218 299.976 462.24 299.976H427.139C425.153 299.976 423.364 299.176 421.766 297.567C420.155 295.969 419.357 294.18 419.357 292.194V221.064C419.357 219.089 420.155 217.298 421.766 215.694C423.364 214.093 425.153 213.289 427.139 213.289H464.186L467.765 228.948H442.284V284.319H447.094V247.677H470.223V292.194" fill="white"/>
<path d="M414.898 349.143H386.071V377.968H414.898V349.143Z" fill="#ED1C24"/>
<path d="M455.063 349.143H426.233V377.968H455.063V349.143Z" fill="#ED1C24"/>
<path d="M455.063 389.308H426.233V418.137H455.063V389.308" fill="#ED1C24"/>
<path d="M414.898 389.308H386.071V418.137H414.898V389.308" fill="#ED1C24"/>
<path d="M374.736 619.019H345.876V590.188H374.736V619.019ZM374.736 659.194H345.876V630.357H374.736V659.194ZM374.736 699.37H345.876V670.531H374.736V699.37ZM374.736 739.548H345.876V710.71H374.736V739.548ZM334.535 578.846H305.711V550.012H334.535V578.846ZM334.535 619.019H305.711V590.188H334.535V619.019ZM334.535 659.194H305.711V630.357H334.535V659.194ZM334.535 699.37H305.711V670.531H334.535V699.37ZM334.535 739.548H305.711V710.71H334.535V739.548ZM294.369 538.673H265.546V509.837H294.369V538.673ZM294.369 578.846H265.546V550.012H294.369V578.846ZM294.369 619.019H265.546V590.188H294.369V619.019ZM294.369 659.194H265.546V630.357H294.369V659.194ZM294.369 699.37H265.546V670.531H294.369V699.37ZM294.369 739.548H265.546V710.71H294.369V739.548ZM254.204 498.493H225.349V469.666H254.204V498.493ZM254.204 538.673H225.349V509.837H254.204V538.673ZM254.204 578.846H225.349V550.012H254.204V578.846ZM254.204 619.019H225.349V590.188H254.204V619.019ZM254.204 659.194H225.349V630.357H254.204V659.194ZM254.204 699.37H225.349V670.531H254.204V699.37ZM254.204 739.548H225.349V710.71H254.204V739.548ZM214.01 458.331H185.181V429.477H214.01V458.331ZM214.01 498.493H185.181V469.666H214.01V498.493ZM173.847 418.137H145.016V389.308H173.847V418.137ZM173.847 458.331H145.016V429.477H173.847V458.331ZM374.736 578.846H345.876V550.012H345.952L334.535 538.596V538.673H305.711V509.837H305.778L294.369 498.43V498.493H265.546V469.666H265.605L254.204 458.265V458.331H225.349V429.477H225.416L214.01 418.07V418.137H185.181V389.308H185.248L173.847 377.908V377.968H145.016V349.142H145.083L133.742 337.803H133.676V349.142V377.968V389.308V418.137V429.477V458.331V469.666H145.016H173.847V498.493V509.837H185.181H214.01V739.548V750.889H225.349H254.204H265.546H294.369H305.711H334.535H345.876H374.736H386.071V739.548V590.132L374.736 578.797V578.846" fill="#CDB5A7"/>
<path d="M455.064 377.968H426.233V349.142H455.064V377.968ZM455.064 418.137H426.233V389.308H455.064V418.137ZM455.064 458.331H426.233V429.477H455.064V458.331ZM414.898 377.968H386.071V349.142H414.898V377.968ZM414.898 418.137H386.071V389.308H414.898V418.137ZM414.898 458.331H386.071V429.477H414.898V458.331ZM414.898 498.493H386.071V469.666H414.898V498.493ZM374.736 377.968H345.876V349.142H374.736V377.968ZM374.736 418.137H345.876V389.308H374.736V418.137ZM374.736 458.331H345.876V429.477H374.736V458.331ZM374.736 498.493H345.876V469.666H374.736V498.493ZM374.736 538.672H345.876V509.837H374.736V538.672ZM334.535 377.968H305.711V349.142H334.535V377.968ZM334.535 418.137H305.711V389.308H334.535V418.137ZM334.535 458.331H305.711V429.477H334.535V458.331ZM334.535 498.493H305.711V469.666H334.535V498.493ZM294.369 377.968H265.546V349.142H294.369V377.968ZM294.369 418.137H265.546V389.308H294.369V418.137ZM294.369 458.331H265.546V429.477H294.369V458.331ZM254.204 377.968H225.349V349.142H254.204V377.968ZM254.204 418.137H225.349V389.308H254.204V418.137ZM214.009 377.968H185.181V349.142H214.009V377.968ZM455.064 337.803H133.742L145.083 349.142H173.847V377.908L185.248 389.308H214.009V418.07L225.416 429.477H254.204V458.265L265.605 469.666H294.369V498.43L305.778 509.837H334.535V538.596L345.952 550.012H374.736V578.797L386.071 590.132V509.837H414.898H426.233V498.493V469.666H455.064H466.405V458.331V349.142V337.803H455.064" fill="#3D60B6"/>
<path d="M46.0832 808.909C44.1136 812.004 41.7682 814.021 37.9696 814.021C30.8407 814.021 28.5892 807.456 28.5892 801.403C28.5892 791.648 33.7485 788.74 37.6884 788.74C41.4877 788.74 43.6919 790.712 45.4268 793.947L42.5664 795.401C41.5343 793.431 40.1264 791.696 37.7357 791.696C32.8576 791.696 31.8728 797.606 31.8728 801.357C31.8728 805.156 32.763 811.066 37.7357 811.066C40.5962 811.066 42.05 809.332 43.5039 807.126L46.0832 808.909" fill="#231F20"/>
<path d="M65.6455 789.163V805.813C65.6455 809.378 66.6774 811.066 69.9131 811.066C73.8531 811.066 74.6972 809.332 74.6972 805.813V789.163H77.8403V807.314C77.8403 810.55 75.5421 814.021 70.1483 814.021C64.8478 814.021 62.5031 810.69 62.5031 807.126V789.163H65.6455" fill="#231F20"/>
<path d="M96.8853 789.163H100.028V810.785H112.832V813.6H96.8853V789.163Z" fill="#231F20"/>
<path d="M134.318 791.977H127.564V789.163H144.074V791.977H137.46V813.6H134.318V791.977Z" fill="#231F20"/>
<path d="M164.151 789.163V805.813C164.151 809.378 165.183 811.066 168.419 811.066C172.358 811.066 173.202 809.332 173.202 805.813V789.163H176.345V807.314C176.345 810.55 174.047 814.021 168.653 814.021C163.353 814.021 161.008 810.69 161.008 807.126V789.163H164.151Z" fill="#231F20"/>
<path d="M201.675 800.325C204.725 800.325 206.741 798.591 206.741 795.824C206.741 793.618 205.428 791.977 202.614 791.977H197.549V800.325H201.675ZM194.407 789.163H202.707C206.788 789.163 210.025 791.085 210.025 795.824C210.025 798.824 208.007 801.781 205.053 802.671L211.055 812.567L208.336 814.209L202.098 803.14H197.549V813.6H194.407V789.163" fill="#231F20"/>
<path d="M227.616 789.163H242.859V791.977H230.758V799.293H240.749V802.108H230.758V810.785H242.859V813.6H227.616V789.163Z" fill="#231F20"/>
<path d="M260.45 789.163H275.694V791.977H263.594V799.293H273.584V802.108H263.594V810.785H275.694V813.6H260.45V789.163" fill="#231F20"/>
<path d="M293.895 789.163H297.039V810.785H309.844V813.6H293.895V789.163Z" fill="#231F20"/>
<path d="M358.956 789.163H374.199V791.977H362.098V799.293H372.089V802.108H362.098V810.785H374.199V813.6H358.956V789.163Z" fill="#231F20"/>
<path d="M398.687 800.325C401.736 800.325 403.751 798.591 403.751 795.824C403.751 793.618 402.439 791.977 399.625 791.977H394.56V800.325H398.687ZM391.417 789.163H399.719C403.8 789.163 407.035 791.085 407.035 795.824C407.035 798.824 405.018 801.781 402.064 802.671L408.067 812.567L405.348 814.209L399.11 803.14H394.56V813.6H391.417V789.163Z" fill="#231F20"/>
<path d="M425.52 789.163H440.903V791.977H428.662V799.293H438.932V802.108H428.662V813.6H425.52V789.163" fill="#231F20"/>
<path d="M472.425 811.346C470.409 812.943 467.408 814.021 464.921 814.021C457.745 814.021 455.683 807.36 455.683 801.357C455.683 795.449 457.839 788.74 464.827 788.74C468.111 788.74 470.972 790.664 472.66 793.431L469.986 795.167C468.814 793.197 467.031 791.696 464.64 791.696C459.809 791.696 458.965 797.746 458.965 801.451C458.965 805.25 459.809 811.066 464.734 811.066C466.329 811.066 467.922 810.644 469.283 809.799V803.374H463.42V800.56H472.425V811.346" fill="#231F20"/>
<path d="M491.613 801.403C491.613 804.968 492.27 811.066 497.007 811.066C501.743 811.066 502.4 804.968 502.4 801.403C502.4 797.792 501.743 791.696 497.007 791.696C492.27 791.696 491.613 797.792 491.613 801.403V801.403ZM505.684 801.403C505.684 803.374 505.542 814.021 497.007 814.021C493.068 814.021 488.329 811.206 488.329 801.403C488.329 791.648 492.972 788.74 497.007 788.74C500.899 788.74 505.684 791.556 505.684 801.403Z" fill="#231F20"/>
<path d="M523.135 789.163H538.378V791.977H526.277V799.293H536.268V802.108H526.277V810.785H538.378V813.6H523.135V789.163Z" fill="#231F20"/>
<path d="M559.865 810.785H563.195C567.321 810.785 569.15 808.44 569.15 801.403C569.15 793.9 566.992 791.977 563.099 791.977H559.865V810.785ZM554.19 789.163H562.351C569.291 789.163 572.433 792.024 572.433 801.076C572.433 808.721 571.12 813.6 562.351 813.6H554.19V810.785H556.722V791.977H554.19V789.163Z" fill="#231F20"/>
</svg>
