<svg width="148" height="60" viewBox="0 0 148 60" fill="none" xmlns="http://www.w3.org/2000/svg">
<path fill-rule="evenodd" clip-rule="evenodd" d="M30.0013 0C22.0444 0 14.4135 3.16084 8.78717 8.78717C3.16084 14.4135 0 22.0444 0 30.0013C0.000669984 37.9577 3.1618 45.5879 8.78806 51.2137C14.4143 56.8395 22.0449 60 30.0013 60C37.9572 59.9993 45.5871 56.8385 51.2128 51.2128C56.8385 45.5871 59.9993 37.9572 60 30.0013C60 22.0449 56.8395 14.4143 51.2137 8.78806C45.5879 3.1618 37.9577 0.000669984 30.0013 0V0ZM49.4482 15.1446L34.1166 44.8566L30.2722 44.3375L44.7309 16.3219L49.4482 15.1446ZM38.5674 17.8576L25.2499 43.6583L21.8342 43.1973L21.8483 43.1726L20.1104 38.9654L18.1802 42.7049L15.1486 42.2998L8.18351 25.4329L10.5731 24.8376L16.6331 39.5117L18.6911 35.526L13.9295 24.0028L16.5172 23.3583L20.2755 32.453L26.2187 20.9387L29.8866 20.0246L21.6956 35.8955L23.4345 40.1005L34.3709 18.9047L38.5674 17.8576Z" fill="#317581"/>
<path d="M62.5166 26.273H63.8824C64.0245 26.273 64.1429 26.3073 64.2377 26.3758C64.3377 26.4442 64.4034 26.539 64.435 26.66L66.7009 34.3337C66.7377 34.4811 66.7719 34.6416 66.8035 34.8152C66.8403 34.9889 66.8772 35.1679 66.914 35.3521C66.9509 35.1626 66.9877 34.9837 67.0245 34.8152C67.0667 34.6416 67.114 34.481 67.1666 34.3337L69.7561 26.66C69.7876 26.56 69.8534 26.4705 69.9534 26.3915C70.0534 26.3126 70.1718 26.2732 70.3087 26.2732H70.7824C70.9245 26.2732 71.0402 26.31 71.1297 26.3837C71.2192 26.4522 71.2876 26.5443 71.335 26.66L73.9166 34.3337C74.0166 34.6284 74.1008 34.9548 74.1692 35.3126C74.1955 35.1284 74.2245 34.9548 74.256 34.7916C74.2929 34.6284 74.3297 34.4758 74.3666 34.3337L76.6403 26.66C76.6666 26.5547 76.7297 26.4652 76.8297 26.3916C76.935 26.3127 77.0561 26.2732 77.1929 26.2732H78.4639L74.9272 37.6018H73.4667L70.664 29.1229C70.6377 29.0386 70.6087 28.9465 70.5772 28.8465C70.5509 28.7466 70.5245 28.6439 70.4982 28.5386C70.4509 28.7597 70.3982 28.9545 70.3403 29.1229L67.522 37.6018H66.0535L62.5168 26.2732L62.5166 26.273Z" fill="#317581"/>
<path d="M82.1739 29.4732C82.6581 29.4732 83.1055 29.5548 83.516 29.718C83.9266 29.8759 84.2818 30.1075 84.5818 30.4127C84.8818 30.718 85.116 31.0943 85.2845 31.5417C85.4529 31.9837 85.5371 32.4916 85.5371 33.0653C85.5371 33.2969 85.5108 33.4521 85.4581 33.5311C85.4108 33.61 85.3187 33.6495 85.1818 33.6495H79.8924C79.9082 34.139 79.9766 34.5653 80.0977 34.9284C80.224 35.2916 80.3924 35.5942 80.6029 35.8363C80.8187 36.0732 81.0766 36.2521 81.3766 36.3732C81.6766 36.4889 82.0108 36.5468 82.3793 36.5468C82.7266 36.5468 83.024 36.5073 83.2714 36.4284C83.524 36.3495 83.7398 36.2627 83.9187 36.1679C84.1029 36.0732 84.2582 35.9863 84.3845 35.9074C84.5108 35.8285 84.6214 35.789 84.7161 35.789C84.8424 35.789 84.9345 35.8364 84.9924 35.9311L85.4187 36.4759C85.2345 36.6969 85.0214 36.8864 84.7792 37.0442C84.5371 37.1969 84.2766 37.3258 83.9977 37.4311C83.7187 37.531 83.4292 37.6047 83.1292 37.6522C82.8345 37.6995 82.5424 37.7231 82.2529 37.7231C81.7003 37.7231 81.1871 37.631 80.7135 37.4468C80.245 37.2574 79.8398 36.9837 79.4977 36.6258C79.1556 36.2626 78.8871 35.8152 78.6924 35.2836C78.5029 34.7468 78.4082 34.1311 78.4082 33.4363C78.4082 32.8784 78.495 32.36 78.6687 31.8811C78.8424 31.3969 79.0898 30.9784 79.4108 30.6258C79.7371 30.2679 80.1319 29.9863 80.595 29.7811C81.0635 29.5758 81.5898 29.4732 82.174 29.4732L82.1739 29.4732ZM82.1976 30.5706C81.5397 30.5706 81.0213 30.7627 80.6424 31.1469C80.2687 31.5258 80.0345 32.0521 79.9397 32.7258H84.195C84.195 32.41 84.1502 32.1205 84.0608 31.8574C83.9698 31.5948 83.8377 31.3688 83.6647 31.1793C83.4963 30.9899 83.2884 30.8425 83.041 30.7372C82.7936 30.6267 82.5121 30.5714 82.1963 30.5714L82.1976 30.5706Z" fill="#317581"/>
<path d="M87.2207 37.6194V25.975H88.7207V30.7353C89.0523 30.3511 89.4286 30.0458 89.8496 29.8195C90.276 29.5932 90.7602 29.48 91.3023 29.48C91.7707 29.48 92.1918 29.5721 92.5654 29.7563C92.9444 29.9353 93.2654 30.1932 93.5286 30.53C93.7917 30.8669 93.9917 31.28 94.1286 31.7695C94.2708 32.2537 94.3418 32.7984 94.3418 33.4037C94.3418 34.0511 94.2603 34.6406 94.0971 35.1721C93.9392 35.7037 93.7103 36.1589 93.4103 36.5379C93.1155 36.9168 92.755 37.2115 92.3287 37.4221C91.9077 37.6273 91.4313 37.73 90.8998 37.73C90.3734 37.73 89.9313 37.6326 89.5734 37.4379C89.2208 37.2379 88.9103 36.9642 88.6419 36.6168L88.5707 37.3036C88.5233 37.5142 88.3969 37.6194 88.1918 37.6194H87.2207L87.2207 37.6194ZM90.8048 30.672C90.3575 30.672 89.968 30.7746 89.6364 30.9799C89.3101 31.1799 89.0049 31.4667 88.7206 31.8404V35.6694C88.9733 36.001 89.2496 36.2352 89.5496 36.372C89.8496 36.5036 90.1759 36.5694 90.5285 36.5694C91.2601 36.5694 91.8206 36.3115 92.2101 35.7957C92.5996 35.2799 92.7943 34.501 92.7943 33.4589C92.7943 32.501 92.6206 31.7984 92.2733 31.3511C91.9311 30.8984 91.4417 30.6721 90.8048 30.6721L90.8048 30.672Z" fill="#317581"/>
<path d="M96.082 37.6194V29.6065H96.982C97.1925 29.6065 97.3241 29.7065 97.3768 29.9065L97.4795 30.6881C97.7742 30.3355 98.1032 30.046 98.4663 29.8197C98.8295 29.5934 99.2532 29.4802 99.7374 29.4802C100.274 29.4802 100.708 29.6276 101.04 29.9223C101.372 30.2118 101.611 30.6065 101.758 31.1065C101.874 30.8223 102.024 30.5776 102.208 30.3723C102.393 30.1671 102.598 29.9986 102.824 29.8671C103.051 29.7355 103.29 29.6381 103.543 29.5749C103.801 29.5118 104.061 29.4803 104.324 29.4803C105.182 29.4803 105.845 29.7434 106.314 30.2697C106.782 30.7908 107.016 31.5382 107.016 32.5119V37.6197H105.516V32.5119C105.516 31.9066 105.382 31.4487 105.114 31.1382C104.851 30.8276 104.466 30.6724 103.961 30.6724C103.735 30.6724 103.519 30.7119 103.314 30.7908C103.114 30.8697 102.937 30.9855 102.785 31.1381C102.632 31.2908 102.511 31.4829 102.422 31.7144C102.332 31.946 102.287 32.2118 102.287 32.5119V37.6197H100.787V32.5119C100.787 31.8908 100.661 31.4303 100.408 31.1303C100.161 30.825 99.7953 30.6723 99.311 30.6723C98.9795 30.6723 98.6663 30.7618 98.3716 30.9408C98.0821 31.1145 97.8189 31.3566 97.5821 31.6671V37.6197H96.0821L96.082 37.6194Z" fill="#317581"/>
<path d="M114.21 37.6194C114.062 37.6194 113.949 37.5956 113.87 37.5482C113.791 37.5009 113.728 37.4088 113.681 37.2719L113.515 36.5535C113.31 36.743 113.107 36.914 112.907 37.0667C112.707 37.2141 112.497 37.3378 112.276 37.4377C112.06 37.5377 111.828 37.614 111.581 37.6667C111.334 37.7193 111.057 37.7457 110.752 37.7457C110.436 37.7457 110.141 37.7036 109.868 37.6195C109.594 37.53 109.355 37.3958 109.149 37.2169C108.949 37.0379 108.789 36.8169 108.668 36.5537C108.552 36.2853 108.494 35.9695 108.494 35.6063C108.494 35.2905 108.578 34.9879 108.747 34.6984C108.92 34.409 109.199 34.1511 109.584 33.9248C109.973 33.6932 110.478 33.5037 111.099 33.3563C111.726 33.209 112.494 33.1248 113.405 33.1037V32.5037C113.405 31.8984 113.273 31.4432 113.01 31.138C112.752 30.8274 112.37 30.6722 111.865 30.6722C111.523 30.6722 111.236 30.7169 111.005 30.8065C110.778 30.8906 110.581 30.9853 110.413 31.0906C110.249 31.1906 110.105 31.2827 109.978 31.3669C109.852 31.4511 109.726 31.4932 109.599 31.4932C109.494 31.4932 109.405 31.4668 109.331 31.4142C109.262 31.3563 109.202 31.2905 109.149 31.2168L108.881 30.7273C109.328 30.3063 109.81 29.9905 110.326 29.78C110.847 29.5694 111.421 29.4642 112.047 29.4642C112.499 29.4642 112.902 29.5379 113.255 29.6853C113.607 29.8326 113.902 30.0405 114.139 30.309C114.381 30.5721 114.563 30.8905 114.684 31.2642C114.81 31.6379 114.873 32.051 114.873 32.5036V37.6194H114.21L114.21 37.6194ZM111.202 36.6957C111.439 36.6957 111.657 36.672 111.857 36.6245C112.062 36.5772 112.252 36.5088 112.426 36.4193C112.604 36.3298 112.773 36.2219 112.931 36.0956C113.089 35.964 113.247 35.8167 113.404 35.6535V34.043C112.773 34.0641 112.236 34.1141 111.794 34.193C111.352 34.2719 110.991 34.3745 110.712 34.5009C110.439 34.6272 110.239 34.7799 110.112 34.9588C109.986 35.1324 109.923 35.3245 109.923 35.5351C109.923 35.7403 109.954 35.9166 110.018 36.064C110.086 36.2114 110.178 36.3324 110.294 36.4271C110.41 36.5166 110.544 36.5851 110.696 36.6323C110.854 36.6744 111.023 36.6955 111.202 36.6955L111.202 36.6957Z" fill="#317581"/>
<path d="M116.944 40.3049V29.5996H117.844C118.054 29.5996 118.186 29.6996 118.238 29.8996L118.365 30.8154C118.701 30.4101 119.088 30.0838 119.525 29.8364C119.967 29.5838 120.472 29.4575 121.041 29.4575C121.499 29.4575 121.912 29.547 122.28 29.7259C122.654 29.8996 122.972 30.1601 123.236 30.5075C123.504 30.8549 123.709 31.2838 123.851 31.7943C123.993 32.2995 124.064 32.8837 124.064 33.5469C124.064 34.1416 123.985 34.6943 123.828 35.2048C123.67 35.71 123.441 36.1495 123.141 36.5232C122.841 36.8969 122.478 37.1916 122.051 37.4074C121.625 37.6179 121.143 37.7232 120.607 37.7232C120.117 37.7232 119.701 37.6443 119.359 37.4864C119.017 37.3285 118.712 37.1022 118.443 36.8074V40.3047H116.943L116.944 40.3049ZM120.551 30.6657C120.099 30.6657 119.704 30.7683 119.367 30.9736C119.036 31.1736 118.728 31.4604 118.444 31.8341V35.6631C118.696 35.9947 118.97 36.2289 119.265 36.3658C119.565 36.4973 119.899 36.5631 120.267 36.5631C120.988 36.5631 121.544 36.3052 121.933 35.7894C122.322 35.2736 122.517 34.5263 122.517 33.5473C122.517 33.0368 122.472 32.6 122.383 32.2368C122.293 31.8736 122.164 31.5763 121.996 31.3447C121.828 31.1079 121.622 30.9368 121.38 30.8316C121.138 30.721 120.862 30.6658 120.551 30.6658L120.551 30.6657Z" fill="#317581"/>
<path d="M125.822 40.3049V29.5996H126.722C126.933 29.5996 127.065 29.6996 127.117 29.8996L127.243 30.8154C127.58 30.4101 127.967 30.0838 128.404 29.8364C128.846 29.5838 129.351 29.4575 129.92 29.4575C130.378 29.4575 130.791 29.547 131.159 29.7259C131.533 29.8996 131.851 30.1601 132.115 30.5075C132.383 30.8549 132.588 31.2838 132.73 31.7943C132.872 32.2995 132.943 32.8837 132.943 33.5469C132.943 34.1416 132.864 34.6943 132.706 35.2048C132.549 35.71 132.32 36.1495 132.02 36.5232C131.72 36.8969 131.356 37.1916 130.93 37.4074C130.504 37.6179 130.022 37.7232 129.485 37.7232C128.996 37.7232 128.58 37.6443 128.238 37.4864C127.896 37.3285 127.591 37.1022 127.322 36.8074V40.3047H125.822L125.822 40.3049ZM129.43 30.6657C128.978 30.6657 128.583 30.7683 128.246 30.9736C127.915 31.1736 127.607 31.4604 127.322 31.8341V35.6631C127.575 35.9947 127.849 36.2289 128.144 36.3658C128.444 36.4973 128.778 36.5631 129.146 36.5631C129.867 36.5631 130.422 36.3052 130.812 35.7894C131.201 35.2736 131.396 34.5263 131.396 33.5473C131.396 33.0368 131.351 32.6 131.262 32.2368C131.172 31.8736 131.043 31.5763 130.875 31.3447C130.707 31.1079 130.501 30.9368 130.259 30.8316C130.017 30.721 129.741 30.6658 129.43 30.6658L129.43 30.6657Z" fill="#317581"/>
<path d="M138.025 29.4732C138.509 29.4732 138.956 29.5548 139.367 29.718C139.777 29.8759 140.133 30.1075 140.433 30.4127C140.733 30.718 140.967 31.0943 141.135 31.5417C141.304 31.9837 141.388 32.4916 141.388 33.0653C141.388 33.2969 141.361 33.4521 141.309 33.5311C141.261 33.61 141.169 33.6495 141.032 33.6495H135.743C135.759 34.139 135.827 34.5653 135.948 34.9284C136.075 35.2916 136.243 35.5942 136.454 35.8363C136.669 36.0732 136.927 36.2521 137.227 36.3732C137.527 36.4889 137.861 36.5468 138.23 36.5468C138.577 36.5468 138.875 36.5073 139.122 36.4284C139.375 36.3495 139.59 36.2627 139.769 36.1679C139.954 36.0732 140.109 35.9863 140.235 35.9074C140.362 35.8285 140.472 35.789 140.567 35.789C140.693 35.789 140.785 35.8364 140.843 35.9311L141.269 36.4759C141.085 36.6969 140.872 36.8864 140.63 37.0442C140.388 37.1969 140.127 37.3258 139.848 37.4311C139.569 37.531 139.28 37.6047 138.98 37.6522C138.685 37.6995 138.393 37.7231 138.104 37.7231C137.551 37.7231 137.038 37.631 136.564 37.4468C136.096 37.2574 135.69 36.9837 135.348 36.6258C135.006 36.2626 134.738 35.8152 134.543 35.2836C134.354 34.7468 134.259 34.1311 134.259 33.4363C134.259 32.8784 134.346 32.36 134.519 31.8811C134.693 31.3969 134.94 30.9784 135.261 30.6258C135.588 30.2679 135.982 29.9863 136.446 29.7811C136.914 29.5758 137.44 29.4732 138.025 29.4732L138.025 29.4732ZM138.048 30.5706C137.391 30.5706 136.872 30.7627 136.493 31.1469C136.119 31.5258 135.885 32.0521 135.79 32.7258H140.046C140.046 32.41 140.001 32.1205 139.911 31.8574C139.822 31.5942 139.69 31.3679 139.517 31.1785C139.348 30.989 139.14 30.8416 138.893 30.7363C138.646 30.6258 138.364 30.5706 138.048 30.5706L138.048 30.5706Z" fill="#317581"/>
<path d="M143.078 37.6194V29.6065H143.939C144.102 29.6065 144.213 29.6355 144.27 29.6934C144.334 29.7513 144.376 29.8565 144.397 30.0092L144.491 31.1775C144.744 30.646 145.055 30.2276 145.423 29.9223C145.791 29.6171 146.233 29.4644 146.749 29.4644C146.923 29.4644 147.086 29.4828 147.239 29.5194C147.397 29.556 147.533 29.6139 147.649 29.693L147.547 30.8141C147.515 30.9561 147.431 31.0271 147.294 31.0271C147.22 31.0271 147.11 31.0113 146.962 30.9797C146.82 30.9481 146.662 30.9324 146.489 30.9324C146.241 30.9324 146.02 30.9692 145.825 31.0429C145.636 31.1166 145.465 31.2245 145.312 31.3666C145.16 31.5088 145.023 31.6824 144.902 31.8876C144.786 32.0929 144.678 32.3271 144.578 32.5902V37.6191H143.078L143.078 37.6194Z" fill="#317581"/>
</svg>
